%TF.GenerationSoftware,KiCad,Pcbnew,8.0.4*%
%TF.CreationDate,2024-08-05T19:41:17-07:00*%
%TF.ProjectId,20220727_Projects_Ideal_Diode_02,32303232-3037-4323-975f-50726f6a6563,rev?*%
%TF.SameCoordinates,PX9634260PY6ea0500*%
%TF.FileFunction,Legend,Top*%
%TF.FilePolarity,Positive*%
%FSLAX46Y46*%
G04 Gerber Fmt 4.6, Leading zero omitted, Abs format (unit mm)*
G04 Created by KiCad (PCBNEW 8.0.4) date 2024-08-05 19:41:17*
%MOMM*%
%LPD*%
G01*
G04 APERTURE LIST*
%ADD10C,0.150000*%
%ADD11C,0.300000*%
G04 APERTURE END LIST*
D10*
X18392858Y2196550D02*
X18500001Y2160836D01*
X18500001Y2160836D02*
X18678572Y2160836D01*
X18678572Y2160836D02*
X18750001Y2196550D01*
X18750001Y2196550D02*
X18785715Y2232265D01*
X18785715Y2232265D02*
X18821429Y2303693D01*
X18821429Y2303693D02*
X18821429Y2375122D01*
X18821429Y2375122D02*
X18785715Y2446550D01*
X18785715Y2446550D02*
X18750001Y2482265D01*
X18750001Y2482265D02*
X18678572Y2517979D01*
X18678572Y2517979D02*
X18535715Y2553693D01*
X18535715Y2553693D02*
X18464286Y2589408D01*
X18464286Y2589408D02*
X18428572Y2625122D01*
X18428572Y2625122D02*
X18392858Y2696550D01*
X18392858Y2696550D02*
X18392858Y2767979D01*
X18392858Y2767979D02*
X18428572Y2839408D01*
X18428572Y2839408D02*
X18464286Y2875122D01*
X18464286Y2875122D02*
X18535715Y2910836D01*
X18535715Y2910836D02*
X18714286Y2910836D01*
X18714286Y2910836D02*
X18821429Y2875122D01*
X19142858Y2160836D02*
X19142858Y2910836D01*
X19500001Y2160836D02*
X19500001Y2910836D01*
X19500001Y2910836D02*
X19750001Y2375122D01*
X19750001Y2375122D02*
X20000001Y2910836D01*
X20000001Y2910836D02*
X20000001Y2160836D01*
X20357144Y2160836D02*
X20357144Y2910836D01*
X20357144Y2910836D02*
X20642858Y2910836D01*
X20642858Y2910836D02*
X20714287Y2875122D01*
X20714287Y2875122D02*
X20750001Y2839408D01*
X20750001Y2839408D02*
X20785715Y2767979D01*
X20785715Y2767979D02*
X20785715Y2660836D01*
X20785715Y2660836D02*
X20750001Y2589408D01*
X20750001Y2589408D02*
X20714287Y2553693D01*
X20714287Y2553693D02*
X20642858Y2517979D01*
X20642858Y2517979D02*
X20357144Y2517979D01*
X21464287Y2160836D02*
X21107144Y2160836D01*
X21107144Y2160836D02*
X21107144Y2910836D01*
X21714287Y2553693D02*
X21964287Y2553693D01*
X22071430Y2160836D02*
X21714287Y2160836D01*
X21714287Y2160836D02*
X21714287Y2910836D01*
X21714287Y2910836D02*
X22071430Y2910836D01*
X22392858Y2446550D02*
X22964287Y2446550D01*
X23321429Y2553693D02*
X23571429Y2553693D01*
X23678572Y2160836D02*
X23321429Y2160836D01*
X23321429Y2160836D02*
X23321429Y2910836D01*
X23321429Y2910836D02*
X23678572Y2910836D01*
X24000000Y2553693D02*
X24250000Y2553693D01*
X24357143Y2160836D02*
X24000000Y2160836D01*
X24000000Y2160836D02*
X24000000Y2910836D01*
X24000000Y2910836D02*
X24357143Y2910836D01*
X24678571Y2232265D02*
X24714285Y2196550D01*
X24714285Y2196550D02*
X24678571Y2160836D01*
X24678571Y2160836D02*
X24642857Y2196550D01*
X24642857Y2196550D02*
X24678571Y2232265D01*
X24678571Y2232265D02*
X24678571Y2160836D01*
X25464285Y2232265D02*
X25428571Y2196550D01*
X25428571Y2196550D02*
X25321428Y2160836D01*
X25321428Y2160836D02*
X25250000Y2160836D01*
X25250000Y2160836D02*
X25142857Y2196550D01*
X25142857Y2196550D02*
X25071428Y2267979D01*
X25071428Y2267979D02*
X25035714Y2339408D01*
X25035714Y2339408D02*
X25000000Y2482265D01*
X25000000Y2482265D02*
X25000000Y2589408D01*
X25000000Y2589408D02*
X25035714Y2732265D01*
X25035714Y2732265D02*
X25071428Y2803693D01*
X25071428Y2803693D02*
X25142857Y2875122D01*
X25142857Y2875122D02*
X25250000Y2910836D01*
X25250000Y2910836D02*
X25321428Y2910836D01*
X25321428Y2910836D02*
X25428571Y2875122D01*
X25428571Y2875122D02*
X25464285Y2839408D01*
X25928571Y2910836D02*
X26071428Y2910836D01*
X26071428Y2910836D02*
X26142857Y2875122D01*
X26142857Y2875122D02*
X26214285Y2803693D01*
X26214285Y2803693D02*
X26250000Y2660836D01*
X26250000Y2660836D02*
X26250000Y2410836D01*
X26250000Y2410836D02*
X26214285Y2267979D01*
X26214285Y2267979D02*
X26142857Y2196550D01*
X26142857Y2196550D02*
X26071428Y2160836D01*
X26071428Y2160836D02*
X25928571Y2160836D01*
X25928571Y2160836D02*
X25857143Y2196550D01*
X25857143Y2196550D02*
X25785714Y2267979D01*
X25785714Y2267979D02*
X25750000Y2410836D01*
X25750000Y2410836D02*
X25750000Y2660836D01*
X25750000Y2660836D02*
X25785714Y2803693D01*
X25785714Y2803693D02*
X25857143Y2875122D01*
X25857143Y2875122D02*
X25928571Y2910836D01*
X26571428Y2160836D02*
X26571428Y2910836D01*
X26571428Y2910836D02*
X26821428Y2375122D01*
X26821428Y2375122D02*
X27071428Y2910836D01*
X27071428Y2910836D02*
X27071428Y2160836D01*
D11*
X7142856Y2893100D02*
X8285714Y2893100D01*
X7714285Y2321672D02*
X7714285Y3464529D01*
X8785714Y3821672D02*
X9285714Y2321672D01*
X9285714Y2321672D02*
X9785714Y3821672D01*
X10285713Y2321672D02*
X10285713Y3821672D01*
X10999999Y2321672D02*
X10999999Y3821672D01*
X10999999Y3821672D02*
X11857142Y2321672D01*
X11857142Y2321672D02*
X11857142Y3821672D01*
X50142856Y7893100D02*
X51285714Y7893100D01*
X50714285Y7321672D02*
X50714285Y8464529D01*
X51785714Y8821672D02*
X52285714Y7321672D01*
X52285714Y7321672D02*
X52785714Y8821672D01*
X53285713Y7321672D02*
X53285713Y8821672D01*
X53999999Y7321672D02*
X53999999Y8821672D01*
X53999999Y8821672D02*
X54857142Y7321672D01*
X54857142Y7321672D02*
X54857142Y8821672D01*
D10*
X10749998Y1339408D02*
X10785712Y1375122D01*
X10785712Y1375122D02*
X10857141Y1410836D01*
X10857141Y1410836D02*
X11035712Y1410836D01*
X11035712Y1410836D02*
X11107141Y1375122D01*
X11107141Y1375122D02*
X11142855Y1339408D01*
X11142855Y1339408D02*
X11178569Y1267979D01*
X11178569Y1267979D02*
X11178569Y1196550D01*
X11178569Y1196550D02*
X11142855Y1089408D01*
X11142855Y1089408D02*
X10714283Y660836D01*
X10714283Y660836D02*
X11178569Y660836D01*
X11642855Y1410836D02*
X11714284Y1410836D01*
X11714284Y1410836D02*
X11785712Y1375122D01*
X11785712Y1375122D02*
X11821427Y1339408D01*
X11821427Y1339408D02*
X11857141Y1267979D01*
X11857141Y1267979D02*
X11892855Y1125122D01*
X11892855Y1125122D02*
X11892855Y946550D01*
X11892855Y946550D02*
X11857141Y803693D01*
X11857141Y803693D02*
X11821427Y732265D01*
X11821427Y732265D02*
X11785712Y696550D01*
X11785712Y696550D02*
X11714284Y660836D01*
X11714284Y660836D02*
X11642855Y660836D01*
X11642855Y660836D02*
X11571427Y696550D01*
X11571427Y696550D02*
X11535712Y732265D01*
X11535712Y732265D02*
X11499998Y803693D01*
X11499998Y803693D02*
X11464284Y946550D01*
X11464284Y946550D02*
X11464284Y1125122D01*
X11464284Y1125122D02*
X11499998Y1267979D01*
X11499998Y1267979D02*
X11535712Y1339408D01*
X11535712Y1339408D02*
X11571427Y1375122D01*
X11571427Y1375122D02*
X11642855Y1410836D01*
X12178570Y1339408D02*
X12214284Y1375122D01*
X12214284Y1375122D02*
X12285713Y1410836D01*
X12285713Y1410836D02*
X12464284Y1410836D01*
X12464284Y1410836D02*
X12535713Y1375122D01*
X12535713Y1375122D02*
X12571427Y1339408D01*
X12571427Y1339408D02*
X12607141Y1267979D01*
X12607141Y1267979D02*
X12607141Y1196550D01*
X12607141Y1196550D02*
X12571427Y1089408D01*
X12571427Y1089408D02*
X12142855Y660836D01*
X12142855Y660836D02*
X12607141Y660836D01*
X13249999Y1160836D02*
X13249999Y660836D01*
X13071427Y1446550D02*
X12892856Y910836D01*
X12892856Y910836D02*
X13357141Y910836D01*
X13785713Y1410836D02*
X13857142Y1410836D01*
X13857142Y1410836D02*
X13928570Y1375122D01*
X13928570Y1375122D02*
X13964285Y1339408D01*
X13964285Y1339408D02*
X13999999Y1267979D01*
X13999999Y1267979D02*
X14035713Y1125122D01*
X14035713Y1125122D02*
X14035713Y946550D01*
X14035713Y946550D02*
X13999999Y803693D01*
X13999999Y803693D02*
X13964285Y732265D01*
X13964285Y732265D02*
X13928570Y696550D01*
X13928570Y696550D02*
X13857142Y660836D01*
X13857142Y660836D02*
X13785713Y660836D01*
X13785713Y660836D02*
X13714285Y696550D01*
X13714285Y696550D02*
X13678570Y732265D01*
X13678570Y732265D02*
X13642856Y803693D01*
X13642856Y803693D02*
X13607142Y946550D01*
X13607142Y946550D02*
X13607142Y1125122D01*
X13607142Y1125122D02*
X13642856Y1267979D01*
X13642856Y1267979D02*
X13678570Y1339408D01*
X13678570Y1339408D02*
X13714285Y1375122D01*
X13714285Y1375122D02*
X13785713Y1410836D01*
X14464285Y1089408D02*
X14392856Y1125122D01*
X14392856Y1125122D02*
X14357142Y1160836D01*
X14357142Y1160836D02*
X14321428Y1232265D01*
X14321428Y1232265D02*
X14321428Y1267979D01*
X14321428Y1267979D02*
X14357142Y1339408D01*
X14357142Y1339408D02*
X14392856Y1375122D01*
X14392856Y1375122D02*
X14464285Y1410836D01*
X14464285Y1410836D02*
X14607142Y1410836D01*
X14607142Y1410836D02*
X14678571Y1375122D01*
X14678571Y1375122D02*
X14714285Y1339408D01*
X14714285Y1339408D02*
X14749999Y1267979D01*
X14749999Y1267979D02*
X14749999Y1232265D01*
X14749999Y1232265D02*
X14714285Y1160836D01*
X14714285Y1160836D02*
X14678571Y1125122D01*
X14678571Y1125122D02*
X14607142Y1089408D01*
X14607142Y1089408D02*
X14464285Y1089408D01*
X14464285Y1089408D02*
X14392856Y1053693D01*
X14392856Y1053693D02*
X14357142Y1017979D01*
X14357142Y1017979D02*
X14321428Y946550D01*
X14321428Y946550D02*
X14321428Y803693D01*
X14321428Y803693D02*
X14357142Y732265D01*
X14357142Y732265D02*
X14392856Y696550D01*
X14392856Y696550D02*
X14464285Y660836D01*
X14464285Y660836D02*
X14607142Y660836D01*
X14607142Y660836D02*
X14678571Y696550D01*
X14678571Y696550D02*
X14714285Y732265D01*
X14714285Y732265D02*
X14749999Y803693D01*
X14749999Y803693D02*
X14749999Y946550D01*
X14749999Y946550D02*
X14714285Y1017979D01*
X14714285Y1017979D02*
X14678571Y1053693D01*
X14678571Y1053693D02*
X14607142Y1089408D01*
X15214285Y1410836D02*
X15285714Y1410836D01*
X15285714Y1410836D02*
X15357142Y1375122D01*
X15357142Y1375122D02*
X15392857Y1339408D01*
X15392857Y1339408D02*
X15428571Y1267979D01*
X15428571Y1267979D02*
X15464285Y1125122D01*
X15464285Y1125122D02*
X15464285Y946550D01*
X15464285Y946550D02*
X15428571Y803693D01*
X15428571Y803693D02*
X15392857Y732265D01*
X15392857Y732265D02*
X15357142Y696550D01*
X15357142Y696550D02*
X15285714Y660836D01*
X15285714Y660836D02*
X15214285Y660836D01*
X15214285Y660836D02*
X15142857Y696550D01*
X15142857Y696550D02*
X15107142Y732265D01*
X15107142Y732265D02*
X15071428Y803693D01*
X15071428Y803693D02*
X15035714Y946550D01*
X15035714Y946550D02*
X15035714Y1125122D01*
X15035714Y1125122D02*
X15071428Y1267979D01*
X15071428Y1267979D02*
X15107142Y1339408D01*
X15107142Y1339408D02*
X15142857Y1375122D01*
X15142857Y1375122D02*
X15214285Y1410836D01*
X16142857Y1410836D02*
X15785714Y1410836D01*
X15785714Y1410836D02*
X15750000Y1053693D01*
X15750000Y1053693D02*
X15785714Y1089408D01*
X15785714Y1089408D02*
X15857143Y1125122D01*
X15857143Y1125122D02*
X16035714Y1125122D01*
X16035714Y1125122D02*
X16107143Y1089408D01*
X16107143Y1089408D02*
X16142857Y1053693D01*
X16142857Y1053693D02*
X16178571Y982265D01*
X16178571Y982265D02*
X16178571Y803693D01*
X16178571Y803693D02*
X16142857Y732265D01*
X16142857Y732265D02*
X16107143Y696550D01*
X16107143Y696550D02*
X16035714Y660836D01*
X16035714Y660836D02*
X15857143Y660836D01*
X15857143Y660836D02*
X15785714Y696550D01*
X15785714Y696550D02*
X15750000Y732265D01*
X16321429Y589408D02*
X16892857Y589408D01*
X17071429Y660836D02*
X17071429Y1410836D01*
X17071429Y1410836D02*
X17357143Y1410836D01*
X17357143Y1410836D02*
X17428572Y1375122D01*
X17428572Y1375122D02*
X17464286Y1339408D01*
X17464286Y1339408D02*
X17500000Y1267979D01*
X17500000Y1267979D02*
X17500000Y1160836D01*
X17500000Y1160836D02*
X17464286Y1089408D01*
X17464286Y1089408D02*
X17428572Y1053693D01*
X17428572Y1053693D02*
X17357143Y1017979D01*
X17357143Y1017979D02*
X17071429Y1017979D01*
X18250000Y660836D02*
X18000000Y1017979D01*
X17821429Y660836D02*
X17821429Y1410836D01*
X17821429Y1410836D02*
X18107143Y1410836D01*
X18107143Y1410836D02*
X18178572Y1375122D01*
X18178572Y1375122D02*
X18214286Y1339408D01*
X18214286Y1339408D02*
X18250000Y1267979D01*
X18250000Y1267979D02*
X18250000Y1160836D01*
X18250000Y1160836D02*
X18214286Y1089408D01*
X18214286Y1089408D02*
X18178572Y1053693D01*
X18178572Y1053693D02*
X18107143Y1017979D01*
X18107143Y1017979D02*
X17821429Y1017979D01*
X18714286Y1410836D02*
X18857143Y1410836D01*
X18857143Y1410836D02*
X18928572Y1375122D01*
X18928572Y1375122D02*
X19000000Y1303693D01*
X19000000Y1303693D02*
X19035715Y1160836D01*
X19035715Y1160836D02*
X19035715Y910836D01*
X19035715Y910836D02*
X19000000Y767979D01*
X19000000Y767979D02*
X18928572Y696550D01*
X18928572Y696550D02*
X18857143Y660836D01*
X18857143Y660836D02*
X18714286Y660836D01*
X18714286Y660836D02*
X18642858Y696550D01*
X18642858Y696550D02*
X18571429Y767979D01*
X18571429Y767979D02*
X18535715Y910836D01*
X18535715Y910836D02*
X18535715Y1160836D01*
X18535715Y1160836D02*
X18571429Y1303693D01*
X18571429Y1303693D02*
X18642858Y1375122D01*
X18642858Y1375122D02*
X18714286Y1410836D01*
X19571429Y1410836D02*
X19571429Y875122D01*
X19571429Y875122D02*
X19535714Y767979D01*
X19535714Y767979D02*
X19464286Y696550D01*
X19464286Y696550D02*
X19357143Y660836D01*
X19357143Y660836D02*
X19285714Y660836D01*
X19928572Y1053693D02*
X20178572Y1053693D01*
X20285715Y660836D02*
X19928572Y660836D01*
X19928572Y660836D02*
X19928572Y1410836D01*
X19928572Y1410836D02*
X20285715Y1410836D01*
X21035714Y732265D02*
X21000000Y696550D01*
X21000000Y696550D02*
X20892857Y660836D01*
X20892857Y660836D02*
X20821429Y660836D01*
X20821429Y660836D02*
X20714286Y696550D01*
X20714286Y696550D02*
X20642857Y767979D01*
X20642857Y767979D02*
X20607143Y839408D01*
X20607143Y839408D02*
X20571429Y982265D01*
X20571429Y982265D02*
X20571429Y1089408D01*
X20571429Y1089408D02*
X20607143Y1232265D01*
X20607143Y1232265D02*
X20642857Y1303693D01*
X20642857Y1303693D02*
X20714286Y1375122D01*
X20714286Y1375122D02*
X20821429Y1410836D01*
X20821429Y1410836D02*
X20892857Y1410836D01*
X20892857Y1410836D02*
X21000000Y1375122D01*
X21000000Y1375122D02*
X21035714Y1339408D01*
X21250000Y1410836D02*
X21678572Y1410836D01*
X21464286Y660836D02*
X21464286Y1410836D01*
X21892858Y696550D02*
X22000001Y660836D01*
X22000001Y660836D02*
X22178572Y660836D01*
X22178572Y660836D02*
X22250001Y696550D01*
X22250001Y696550D02*
X22285715Y732265D01*
X22285715Y732265D02*
X22321429Y803693D01*
X22321429Y803693D02*
X22321429Y875122D01*
X22321429Y875122D02*
X22285715Y946550D01*
X22285715Y946550D02*
X22250001Y982265D01*
X22250001Y982265D02*
X22178572Y1017979D01*
X22178572Y1017979D02*
X22035715Y1053693D01*
X22035715Y1053693D02*
X21964286Y1089408D01*
X21964286Y1089408D02*
X21928572Y1125122D01*
X21928572Y1125122D02*
X21892858Y1196550D01*
X21892858Y1196550D02*
X21892858Y1267979D01*
X21892858Y1267979D02*
X21928572Y1339408D01*
X21928572Y1339408D02*
X21964286Y1375122D01*
X21964286Y1375122D02*
X22035715Y1410836D01*
X22035715Y1410836D02*
X22214286Y1410836D01*
X22214286Y1410836D02*
X22321429Y1375122D01*
X22464287Y589408D02*
X23035715Y589408D01*
X23214287Y660836D02*
X23214287Y1410836D01*
X23892859Y660836D02*
X23892859Y1410836D01*
X23892859Y696550D02*
X23821430Y660836D01*
X23821430Y660836D02*
X23678573Y660836D01*
X23678573Y660836D02*
X23607144Y696550D01*
X23607144Y696550D02*
X23571430Y732265D01*
X23571430Y732265D02*
X23535716Y803693D01*
X23535716Y803693D02*
X23535716Y1017979D01*
X23535716Y1017979D02*
X23571430Y1089408D01*
X23571430Y1089408D02*
X23607144Y1125122D01*
X23607144Y1125122D02*
X23678573Y1160836D01*
X23678573Y1160836D02*
X23821430Y1160836D01*
X23821430Y1160836D02*
X23892859Y1125122D01*
X24535715Y696550D02*
X24464287Y660836D01*
X24464287Y660836D02*
X24321430Y660836D01*
X24321430Y660836D02*
X24250001Y696550D01*
X24250001Y696550D02*
X24214287Y767979D01*
X24214287Y767979D02*
X24214287Y1053693D01*
X24214287Y1053693D02*
X24250001Y1125122D01*
X24250001Y1125122D02*
X24321430Y1160836D01*
X24321430Y1160836D02*
X24464287Y1160836D01*
X24464287Y1160836D02*
X24535715Y1125122D01*
X24535715Y1125122D02*
X24571430Y1053693D01*
X24571430Y1053693D02*
X24571430Y982265D01*
X24571430Y982265D02*
X24214287Y910836D01*
X25214287Y660836D02*
X25214287Y1053693D01*
X25214287Y1053693D02*
X25178572Y1125122D01*
X25178572Y1125122D02*
X25107144Y1160836D01*
X25107144Y1160836D02*
X24964287Y1160836D01*
X24964287Y1160836D02*
X24892858Y1125122D01*
X25214287Y696550D02*
X25142858Y660836D01*
X25142858Y660836D02*
X24964287Y660836D01*
X24964287Y660836D02*
X24892858Y696550D01*
X24892858Y696550D02*
X24857144Y767979D01*
X24857144Y767979D02*
X24857144Y839408D01*
X24857144Y839408D02*
X24892858Y910836D01*
X24892858Y910836D02*
X24964287Y946550D01*
X24964287Y946550D02*
X25142858Y946550D01*
X25142858Y946550D02*
X25214287Y982265D01*
X25678572Y660836D02*
X25607143Y696550D01*
X25607143Y696550D02*
X25571429Y767979D01*
X25571429Y767979D02*
X25571429Y1410836D01*
X25964286Y660836D02*
X25964286Y1410836D01*
X25964286Y1410836D02*
X26142857Y1410836D01*
X26142857Y1410836D02*
X26250000Y1375122D01*
X26250000Y1375122D02*
X26321429Y1303693D01*
X26321429Y1303693D02*
X26357143Y1232265D01*
X26357143Y1232265D02*
X26392857Y1089408D01*
X26392857Y1089408D02*
X26392857Y982265D01*
X26392857Y982265D02*
X26357143Y839408D01*
X26357143Y839408D02*
X26321429Y767979D01*
X26321429Y767979D02*
X26250000Y696550D01*
X26250000Y696550D02*
X26142857Y660836D01*
X26142857Y660836D02*
X25964286Y660836D01*
X26714286Y660836D02*
X26714286Y1160836D01*
X26714286Y1410836D02*
X26678572Y1375122D01*
X26678572Y1375122D02*
X26714286Y1339408D01*
X26714286Y1339408D02*
X26750000Y1375122D01*
X26750000Y1375122D02*
X26714286Y1410836D01*
X26714286Y1410836D02*
X26714286Y1339408D01*
X27178572Y660836D02*
X27107143Y696550D01*
X27107143Y696550D02*
X27071429Y732265D01*
X27071429Y732265D02*
X27035715Y803693D01*
X27035715Y803693D02*
X27035715Y1017979D01*
X27035715Y1017979D02*
X27071429Y1089408D01*
X27071429Y1089408D02*
X27107143Y1125122D01*
X27107143Y1125122D02*
X27178572Y1160836D01*
X27178572Y1160836D02*
X27285715Y1160836D01*
X27285715Y1160836D02*
X27357143Y1125122D01*
X27357143Y1125122D02*
X27392858Y1089408D01*
X27392858Y1089408D02*
X27428572Y1017979D01*
X27428572Y1017979D02*
X27428572Y803693D01*
X27428572Y803693D02*
X27392858Y732265D01*
X27392858Y732265D02*
X27357143Y696550D01*
X27357143Y696550D02*
X27285715Y660836D01*
X27285715Y660836D02*
X27178572Y660836D01*
X28071429Y660836D02*
X28071429Y1410836D01*
X28071429Y696550D02*
X28000000Y660836D01*
X28000000Y660836D02*
X27857143Y660836D01*
X27857143Y660836D02*
X27785714Y696550D01*
X27785714Y696550D02*
X27750000Y732265D01*
X27750000Y732265D02*
X27714286Y803693D01*
X27714286Y803693D02*
X27714286Y1017979D01*
X27714286Y1017979D02*
X27750000Y1089408D01*
X27750000Y1089408D02*
X27785714Y1125122D01*
X27785714Y1125122D02*
X27857143Y1160836D01*
X27857143Y1160836D02*
X28000000Y1160836D01*
X28000000Y1160836D02*
X28071429Y1125122D01*
X28714285Y696550D02*
X28642857Y660836D01*
X28642857Y660836D02*
X28500000Y660836D01*
X28500000Y660836D02*
X28428571Y696550D01*
X28428571Y696550D02*
X28392857Y767979D01*
X28392857Y767979D02*
X28392857Y1053693D01*
X28392857Y1053693D02*
X28428571Y1125122D01*
X28428571Y1125122D02*
X28500000Y1160836D01*
X28500000Y1160836D02*
X28642857Y1160836D01*
X28642857Y1160836D02*
X28714285Y1125122D01*
X28714285Y1125122D02*
X28750000Y1053693D01*
X28750000Y1053693D02*
X28750000Y982265D01*
X28750000Y982265D02*
X28392857Y910836D01*
X29214285Y1410836D02*
X29285714Y1410836D01*
X29285714Y1410836D02*
X29357142Y1375122D01*
X29357142Y1375122D02*
X29392857Y1339408D01*
X29392857Y1339408D02*
X29428571Y1267979D01*
X29428571Y1267979D02*
X29464285Y1125122D01*
X29464285Y1125122D02*
X29464285Y946550D01*
X29464285Y946550D02*
X29428571Y803693D01*
X29428571Y803693D02*
X29392857Y732265D01*
X29392857Y732265D02*
X29357142Y696550D01*
X29357142Y696550D02*
X29285714Y660836D01*
X29285714Y660836D02*
X29214285Y660836D01*
X29214285Y660836D02*
X29142857Y696550D01*
X29142857Y696550D02*
X29107142Y732265D01*
X29107142Y732265D02*
X29071428Y803693D01*
X29071428Y803693D02*
X29035714Y946550D01*
X29035714Y946550D02*
X29035714Y1125122D01*
X29035714Y1125122D02*
X29071428Y1267979D01*
X29071428Y1267979D02*
X29107142Y1339408D01*
X29107142Y1339408D02*
X29142857Y1375122D01*
X29142857Y1375122D02*
X29214285Y1410836D01*
X29750000Y1339408D02*
X29785714Y1375122D01*
X29785714Y1375122D02*
X29857143Y1410836D01*
X29857143Y1410836D02*
X30035714Y1410836D01*
X30035714Y1410836D02*
X30107143Y1375122D01*
X30107143Y1375122D02*
X30142857Y1339408D01*
X30142857Y1339408D02*
X30178571Y1267979D01*
X30178571Y1267979D02*
X30178571Y1196550D01*
X30178571Y1196550D02*
X30142857Y1089408D01*
X30142857Y1089408D02*
X29714285Y660836D01*
X29714285Y660836D02*
X30178571Y660836D01*
X30321429Y589408D02*
X30892857Y589408D01*
X31035715Y875122D02*
X31392858Y875122D01*
X30964286Y660836D02*
X31214286Y1410836D01*
X31214286Y1410836D02*
X31464286Y660836D01*
X31857143Y1410836D02*
X31928572Y1410836D01*
X31928572Y1410836D02*
X32000000Y1375122D01*
X32000000Y1375122D02*
X32035715Y1339408D01*
X32035715Y1339408D02*
X32071429Y1267979D01*
X32071429Y1267979D02*
X32107143Y1125122D01*
X32107143Y1125122D02*
X32107143Y946550D01*
X32107143Y946550D02*
X32071429Y803693D01*
X32071429Y803693D02*
X32035715Y732265D01*
X32035715Y732265D02*
X32000000Y696550D01*
X32000000Y696550D02*
X31928572Y660836D01*
X31928572Y660836D02*
X31857143Y660836D01*
X31857143Y660836D02*
X31785715Y696550D01*
X31785715Y696550D02*
X31750000Y732265D01*
X31750000Y732265D02*
X31714286Y803693D01*
X31714286Y803693D02*
X31678572Y946550D01*
X31678572Y946550D02*
X31678572Y1125122D01*
X31678572Y1125122D02*
X31714286Y1267979D01*
X31714286Y1267979D02*
X31750000Y1339408D01*
X31750000Y1339408D02*
X31785715Y1375122D01*
X31785715Y1375122D02*
X31857143Y1410836D01*
X32250001Y589408D02*
X32821429Y589408D01*
X33142858Y1410836D02*
X33214287Y1410836D01*
X33214287Y1410836D02*
X33285715Y1375122D01*
X33285715Y1375122D02*
X33321430Y1339408D01*
X33321430Y1339408D02*
X33357144Y1267979D01*
X33357144Y1267979D02*
X33392858Y1125122D01*
X33392858Y1125122D02*
X33392858Y946550D01*
X33392858Y946550D02*
X33357144Y803693D01*
X33357144Y803693D02*
X33321430Y732265D01*
X33321430Y732265D02*
X33285715Y696550D01*
X33285715Y696550D02*
X33214287Y660836D01*
X33214287Y660836D02*
X33142858Y660836D01*
X33142858Y660836D02*
X33071430Y696550D01*
X33071430Y696550D02*
X33035715Y732265D01*
X33035715Y732265D02*
X33000001Y803693D01*
X33000001Y803693D02*
X32964287Y946550D01*
X32964287Y946550D02*
X32964287Y1125122D01*
X32964287Y1125122D02*
X33000001Y1267979D01*
X33000001Y1267979D02*
X33035715Y1339408D01*
X33035715Y1339408D02*
X33071430Y1375122D01*
X33071430Y1375122D02*
X33142858Y1410836D01*
X33857144Y1410836D02*
X33928573Y1410836D01*
X33928573Y1410836D02*
X34000001Y1375122D01*
X34000001Y1375122D02*
X34035716Y1339408D01*
X34035716Y1339408D02*
X34071430Y1267979D01*
X34071430Y1267979D02*
X34107144Y1125122D01*
X34107144Y1125122D02*
X34107144Y946550D01*
X34107144Y946550D02*
X34071430Y803693D01*
X34071430Y803693D02*
X34035716Y732265D01*
X34035716Y732265D02*
X34000001Y696550D01*
X34000001Y696550D02*
X33928573Y660836D01*
X33928573Y660836D02*
X33857144Y660836D01*
X33857144Y660836D02*
X33785716Y696550D01*
X33785716Y696550D02*
X33750001Y732265D01*
X33750001Y732265D02*
X33714287Y803693D01*
X33714287Y803693D02*
X33678573Y946550D01*
X33678573Y946550D02*
X33678573Y1125122D01*
X33678573Y1125122D02*
X33714287Y1267979D01*
X33714287Y1267979D02*
X33750001Y1339408D01*
X33750001Y1339408D02*
X33785716Y1375122D01*
X33785716Y1375122D02*
X33857144Y1410836D01*
X34571430Y1410836D02*
X34642859Y1410836D01*
X34642859Y1410836D02*
X34714287Y1375122D01*
X34714287Y1375122D02*
X34750002Y1339408D01*
X34750002Y1339408D02*
X34785716Y1267979D01*
X34785716Y1267979D02*
X34821430Y1125122D01*
X34821430Y1125122D02*
X34821430Y946550D01*
X34821430Y946550D02*
X34785716Y803693D01*
X34785716Y803693D02*
X34750002Y732265D01*
X34750002Y732265D02*
X34714287Y696550D01*
X34714287Y696550D02*
X34642859Y660836D01*
X34642859Y660836D02*
X34571430Y660836D01*
X34571430Y660836D02*
X34500002Y696550D01*
X34500002Y696550D02*
X34464287Y732265D01*
X34464287Y732265D02*
X34428573Y803693D01*
X34428573Y803693D02*
X34392859Y946550D01*
X34392859Y946550D02*
X34392859Y1125122D01*
X34392859Y1125122D02*
X34428573Y1267979D01*
X34428573Y1267979D02*
X34464287Y1339408D01*
X34464287Y1339408D02*
X34500002Y1375122D01*
X34500002Y1375122D02*
X34571430Y1410836D01*
X35285716Y1410836D02*
X35357145Y1410836D01*
X35357145Y1410836D02*
X35428573Y1375122D01*
X35428573Y1375122D02*
X35464288Y1339408D01*
X35464288Y1339408D02*
X35500002Y1267979D01*
X35500002Y1267979D02*
X35535716Y1125122D01*
X35535716Y1125122D02*
X35535716Y946550D01*
X35535716Y946550D02*
X35500002Y803693D01*
X35500002Y803693D02*
X35464288Y732265D01*
X35464288Y732265D02*
X35428573Y696550D01*
X35428573Y696550D02*
X35357145Y660836D01*
X35357145Y660836D02*
X35285716Y660836D01*
X35285716Y660836D02*
X35214288Y696550D01*
X35214288Y696550D02*
X35178573Y732265D01*
X35178573Y732265D02*
X35142859Y803693D01*
X35142859Y803693D02*
X35107145Y946550D01*
X35107145Y946550D02*
X35107145Y1125122D01*
X35107145Y1125122D02*
X35142859Y1267979D01*
X35142859Y1267979D02*
X35178573Y1339408D01*
X35178573Y1339408D02*
X35214288Y1375122D01*
X35214288Y1375122D02*
X35285716Y1410836D01*
X36250002Y660836D02*
X35821431Y660836D01*
X36035716Y660836D02*
X36035716Y1410836D01*
X36035716Y1410836D02*
X35964288Y1303693D01*
X35964288Y1303693D02*
X35892859Y1232265D01*
X35892859Y1232265D02*
X35821431Y1196550D01*
X37078571Y1730229D02*
X36878571Y2015943D01*
X36735714Y1730229D02*
X36735714Y2330229D01*
X36735714Y2330229D02*
X36964285Y2330229D01*
X36964285Y2330229D02*
X37021428Y2301658D01*
X37021428Y2301658D02*
X37049999Y2273086D01*
X37049999Y2273086D02*
X37078571Y2215943D01*
X37078571Y2215943D02*
X37078571Y2130229D01*
X37078571Y2130229D02*
X37049999Y2073086D01*
X37049999Y2073086D02*
X37021428Y2044515D01*
X37021428Y2044515D02*
X36964285Y2015943D01*
X36964285Y2015943D02*
X36735714Y2015943D01*
X37649999Y1730229D02*
X37307142Y1730229D01*
X37478571Y1730229D02*
X37478571Y2330229D01*
X37478571Y2330229D02*
X37421428Y2244515D01*
X37421428Y2244515D02*
X37364285Y2187372D01*
X37364285Y2187372D02*
X37307142Y2158800D01*
X38021428Y2330229D02*
X38078571Y2330229D01*
X38078571Y2330229D02*
X38135714Y2301658D01*
X38135714Y2301658D02*
X38164286Y2273086D01*
X38164286Y2273086D02*
X38192857Y2215943D01*
X38192857Y2215943D02*
X38221428Y2101658D01*
X38221428Y2101658D02*
X38221428Y1958800D01*
X38221428Y1958800D02*
X38192857Y1844515D01*
X38192857Y1844515D02*
X38164286Y1787372D01*
X38164286Y1787372D02*
X38135714Y1758800D01*
X38135714Y1758800D02*
X38078571Y1730229D01*
X38078571Y1730229D02*
X38021428Y1730229D01*
X38021428Y1730229D02*
X37964286Y1758800D01*
X37964286Y1758800D02*
X37935714Y1787372D01*
X37935714Y1787372D02*
X37907143Y1844515D01*
X37907143Y1844515D02*
X37878571Y1958800D01*
X37878571Y1958800D02*
X37878571Y2101658D01*
X37878571Y2101658D02*
X37907143Y2215943D01*
X37907143Y2215943D02*
X37935714Y2273086D01*
X37935714Y2273086D02*
X37964286Y2301658D01*
X37964286Y2301658D02*
X38021428Y2330229D01*
X38421429Y2330229D02*
X38792857Y2330229D01*
X38792857Y2330229D02*
X38592857Y2101658D01*
X38592857Y2101658D02*
X38678572Y2101658D01*
X38678572Y2101658D02*
X38735715Y2073086D01*
X38735715Y2073086D02*
X38764286Y2044515D01*
X38764286Y2044515D02*
X38792857Y1987372D01*
X38792857Y1987372D02*
X38792857Y1844515D01*
X38792857Y1844515D02*
X38764286Y1787372D01*
X38764286Y1787372D02*
X38735715Y1758800D01*
X38735715Y1758800D02*
X38678572Y1730229D01*
X38678572Y1730229D02*
X38507143Y1730229D01*
X38507143Y1730229D02*
X38450000Y1758800D01*
X38450000Y1758800D02*
X38421429Y1787372D01*
X33728571Y8800229D02*
X33528571Y9085943D01*
X33385714Y8800229D02*
X33385714Y9400229D01*
X33385714Y9400229D02*
X33614285Y9400229D01*
X33614285Y9400229D02*
X33671428Y9371658D01*
X33671428Y9371658D02*
X33699999Y9343086D01*
X33699999Y9343086D02*
X33728571Y9285943D01*
X33728571Y9285943D02*
X33728571Y9200229D01*
X33728571Y9200229D02*
X33699999Y9143086D01*
X33699999Y9143086D02*
X33671428Y9114515D01*
X33671428Y9114515D02*
X33614285Y9085943D01*
X33614285Y9085943D02*
X33385714Y9085943D01*
X34299999Y8800229D02*
X33957142Y8800229D01*
X34128571Y8800229D02*
X34128571Y9400229D01*
X34128571Y9400229D02*
X34071428Y9314515D01*
X34071428Y9314515D02*
X34014285Y9257372D01*
X34014285Y9257372D02*
X33957142Y9228800D01*
X34671428Y9400229D02*
X34728571Y9400229D01*
X34728571Y9400229D02*
X34785714Y9371658D01*
X34785714Y9371658D02*
X34814286Y9343086D01*
X34814286Y9343086D02*
X34842857Y9285943D01*
X34842857Y9285943D02*
X34871428Y9171658D01*
X34871428Y9171658D02*
X34871428Y9028800D01*
X34871428Y9028800D02*
X34842857Y8914515D01*
X34842857Y8914515D02*
X34814286Y8857372D01*
X34814286Y8857372D02*
X34785714Y8828800D01*
X34785714Y8828800D02*
X34728571Y8800229D01*
X34728571Y8800229D02*
X34671428Y8800229D01*
X34671428Y8800229D02*
X34614286Y8828800D01*
X34614286Y8828800D02*
X34585714Y8857372D01*
X34585714Y8857372D02*
X34557143Y8914515D01*
X34557143Y8914515D02*
X34528571Y9028800D01*
X34528571Y9028800D02*
X34528571Y9171658D01*
X34528571Y9171658D02*
X34557143Y9285943D01*
X34557143Y9285943D02*
X34585714Y9343086D01*
X34585714Y9343086D02*
X34614286Y9371658D01*
X34614286Y9371658D02*
X34671428Y9400229D01*
X35442857Y8800229D02*
X35100000Y8800229D01*
X35271429Y8800229D02*
X35271429Y9400229D01*
X35271429Y9400229D02*
X35214286Y9314515D01*
X35214286Y9314515D02*
X35157143Y9257372D01*
X35157143Y9257372D02*
X35100000Y9228800D01*
X42771427Y5480229D02*
X43114285Y5480229D01*
X42942856Y4880229D02*
X42942856Y5480229D01*
X43314285Y4880229D02*
X43314285Y5480229D01*
X43314285Y5480229D02*
X43542856Y5480229D01*
X43542856Y5480229D02*
X43599999Y5451658D01*
X43599999Y5451658D02*
X43628570Y5423086D01*
X43628570Y5423086D02*
X43657142Y5365943D01*
X43657142Y5365943D02*
X43657142Y5280229D01*
X43657142Y5280229D02*
X43628570Y5223086D01*
X43628570Y5223086D02*
X43599999Y5194515D01*
X43599999Y5194515D02*
X43542856Y5165943D01*
X43542856Y5165943D02*
X43314285Y5165943D01*
X44228570Y4880229D02*
X43885713Y4880229D01*
X44057142Y4880229D02*
X44057142Y5480229D01*
X44057142Y5480229D02*
X43999999Y5394515D01*
X43999999Y5394515D02*
X43942856Y5337372D01*
X43942856Y5337372D02*
X43885713Y5308800D01*
X44599999Y5480229D02*
X44657142Y5480229D01*
X44657142Y5480229D02*
X44714285Y5451658D01*
X44714285Y5451658D02*
X44742857Y5423086D01*
X44742857Y5423086D02*
X44771428Y5365943D01*
X44771428Y5365943D02*
X44799999Y5251658D01*
X44799999Y5251658D02*
X44799999Y5108800D01*
X44799999Y5108800D02*
X44771428Y4994515D01*
X44771428Y4994515D02*
X44742857Y4937372D01*
X44742857Y4937372D02*
X44714285Y4908800D01*
X44714285Y4908800D02*
X44657142Y4880229D01*
X44657142Y4880229D02*
X44599999Y4880229D01*
X44599999Y4880229D02*
X44542857Y4908800D01*
X44542857Y4908800D02*
X44514285Y4937372D01*
X44514285Y4937372D02*
X44485714Y4994515D01*
X44485714Y4994515D02*
X44457142Y5108800D01*
X44457142Y5108800D02*
X44457142Y5251658D01*
X44457142Y5251658D02*
X44485714Y5365943D01*
X44485714Y5365943D02*
X44514285Y5423086D01*
X44514285Y5423086D02*
X44542857Y5451658D01*
X44542857Y5451658D02*
X44599999Y5480229D01*
X45371428Y4880229D02*
X45028571Y4880229D01*
X45200000Y4880229D02*
X45200000Y5480229D01*
X45200000Y5480229D02*
X45142857Y5394515D01*
X45142857Y5394515D02*
X45085714Y5337372D01*
X45085714Y5337372D02*
X45028571Y5308800D01*
X35328571Y6480229D02*
X35128571Y6765943D01*
X34985714Y6480229D02*
X34985714Y7080229D01*
X34985714Y7080229D02*
X35214285Y7080229D01*
X35214285Y7080229D02*
X35271428Y7051658D01*
X35271428Y7051658D02*
X35299999Y7023086D01*
X35299999Y7023086D02*
X35328571Y6965943D01*
X35328571Y6965943D02*
X35328571Y6880229D01*
X35328571Y6880229D02*
X35299999Y6823086D01*
X35299999Y6823086D02*
X35271428Y6794515D01*
X35271428Y6794515D02*
X35214285Y6765943D01*
X35214285Y6765943D02*
X34985714Y6765943D01*
X35899999Y6480229D02*
X35557142Y6480229D01*
X35728571Y6480229D02*
X35728571Y7080229D01*
X35728571Y7080229D02*
X35671428Y6994515D01*
X35671428Y6994515D02*
X35614285Y6937372D01*
X35614285Y6937372D02*
X35557142Y6908800D01*
X36271428Y7080229D02*
X36328571Y7080229D01*
X36328571Y7080229D02*
X36385714Y7051658D01*
X36385714Y7051658D02*
X36414286Y7023086D01*
X36414286Y7023086D02*
X36442857Y6965943D01*
X36442857Y6965943D02*
X36471428Y6851658D01*
X36471428Y6851658D02*
X36471428Y6708800D01*
X36471428Y6708800D02*
X36442857Y6594515D01*
X36442857Y6594515D02*
X36414286Y6537372D01*
X36414286Y6537372D02*
X36385714Y6508800D01*
X36385714Y6508800D02*
X36328571Y6480229D01*
X36328571Y6480229D02*
X36271428Y6480229D01*
X36271428Y6480229D02*
X36214286Y6508800D01*
X36214286Y6508800D02*
X36185714Y6537372D01*
X36185714Y6537372D02*
X36157143Y6594515D01*
X36157143Y6594515D02*
X36128571Y6708800D01*
X36128571Y6708800D02*
X36128571Y6851658D01*
X36128571Y6851658D02*
X36157143Y6965943D01*
X36157143Y6965943D02*
X36185714Y7023086D01*
X36185714Y7023086D02*
X36214286Y7051658D01*
X36214286Y7051658D02*
X36271428Y7080229D01*
X36700000Y7023086D02*
X36728572Y7051658D01*
X36728572Y7051658D02*
X36785715Y7080229D01*
X36785715Y7080229D02*
X36928572Y7080229D01*
X36928572Y7080229D02*
X36985715Y7051658D01*
X36985715Y7051658D02*
X37014286Y7023086D01*
X37014286Y7023086D02*
X37042857Y6965943D01*
X37042857Y6965943D02*
X37042857Y6908800D01*
X37042857Y6908800D02*
X37014286Y6823086D01*
X37014286Y6823086D02*
X36671429Y6480229D01*
X36671429Y6480229D02*
X37042857Y6480229D01*
X42728571Y1887372D02*
X42699999Y1858800D01*
X42699999Y1858800D02*
X42614285Y1830229D01*
X42614285Y1830229D02*
X42557142Y1830229D01*
X42557142Y1830229D02*
X42471428Y1858800D01*
X42471428Y1858800D02*
X42414285Y1915943D01*
X42414285Y1915943D02*
X42385714Y1973086D01*
X42385714Y1973086D02*
X42357142Y2087372D01*
X42357142Y2087372D02*
X42357142Y2173086D01*
X42357142Y2173086D02*
X42385714Y2287372D01*
X42385714Y2287372D02*
X42414285Y2344515D01*
X42414285Y2344515D02*
X42471428Y2401658D01*
X42471428Y2401658D02*
X42557142Y2430229D01*
X42557142Y2430229D02*
X42614285Y2430229D01*
X42614285Y2430229D02*
X42699999Y2401658D01*
X42699999Y2401658D02*
X42728571Y2373086D01*
X43299999Y1830229D02*
X42957142Y1830229D01*
X43128571Y1830229D02*
X43128571Y2430229D01*
X43128571Y2430229D02*
X43071428Y2344515D01*
X43071428Y2344515D02*
X43014285Y2287372D01*
X43014285Y2287372D02*
X42957142Y2258800D01*
X43671428Y2430229D02*
X43728571Y2430229D01*
X43728571Y2430229D02*
X43785714Y2401658D01*
X43785714Y2401658D02*
X43814286Y2373086D01*
X43814286Y2373086D02*
X43842857Y2315943D01*
X43842857Y2315943D02*
X43871428Y2201658D01*
X43871428Y2201658D02*
X43871428Y2058800D01*
X43871428Y2058800D02*
X43842857Y1944515D01*
X43842857Y1944515D02*
X43814286Y1887372D01*
X43814286Y1887372D02*
X43785714Y1858800D01*
X43785714Y1858800D02*
X43728571Y1830229D01*
X43728571Y1830229D02*
X43671428Y1830229D01*
X43671428Y1830229D02*
X43614286Y1858800D01*
X43614286Y1858800D02*
X43585714Y1887372D01*
X43585714Y1887372D02*
X43557143Y1944515D01*
X43557143Y1944515D02*
X43528571Y2058800D01*
X43528571Y2058800D02*
X43528571Y2201658D01*
X43528571Y2201658D02*
X43557143Y2315943D01*
X43557143Y2315943D02*
X43585714Y2373086D01*
X43585714Y2373086D02*
X43614286Y2401658D01*
X43614286Y2401658D02*
X43671428Y2430229D01*
X44442857Y1830229D02*
X44100000Y1830229D01*
X44271429Y1830229D02*
X44271429Y2430229D01*
X44271429Y2430229D02*
X44214286Y2344515D01*
X44214286Y2344515D02*
X44157143Y2287372D01*
X44157143Y2287372D02*
X44100000Y2258800D01*
X26871428Y22673086D02*
X26814285Y22701658D01*
X26814285Y22701658D02*
X26757142Y22758800D01*
X26757142Y22758800D02*
X26671428Y22844515D01*
X26671428Y22844515D02*
X26614285Y22873086D01*
X26614285Y22873086D02*
X26557142Y22873086D01*
X26585713Y22730229D02*
X26528571Y22758800D01*
X26528571Y22758800D02*
X26471428Y22815943D01*
X26471428Y22815943D02*
X26442856Y22930229D01*
X26442856Y22930229D02*
X26442856Y23130229D01*
X26442856Y23130229D02*
X26471428Y23244515D01*
X26471428Y23244515D02*
X26528571Y23301658D01*
X26528571Y23301658D02*
X26585713Y23330229D01*
X26585713Y23330229D02*
X26699999Y23330229D01*
X26699999Y23330229D02*
X26757142Y23301658D01*
X26757142Y23301658D02*
X26814285Y23244515D01*
X26814285Y23244515D02*
X26842856Y23130229D01*
X26842856Y23130229D02*
X26842856Y22930229D01*
X26842856Y22930229D02*
X26814285Y22815943D01*
X26814285Y22815943D02*
X26757142Y22758800D01*
X26757142Y22758800D02*
X26699999Y22730229D01*
X26699999Y22730229D02*
X26585713Y22730229D01*
X27414284Y22730229D02*
X27071427Y22730229D01*
X27242856Y22730229D02*
X27242856Y23330229D01*
X27242856Y23330229D02*
X27185713Y23244515D01*
X27185713Y23244515D02*
X27128570Y23187372D01*
X27128570Y23187372D02*
X27071427Y23158800D01*
X27785713Y23330229D02*
X27842856Y23330229D01*
X27842856Y23330229D02*
X27899999Y23301658D01*
X27899999Y23301658D02*
X27928571Y23273086D01*
X27928571Y23273086D02*
X27957142Y23215943D01*
X27957142Y23215943D02*
X27985713Y23101658D01*
X27985713Y23101658D02*
X27985713Y22958800D01*
X27985713Y22958800D02*
X27957142Y22844515D01*
X27957142Y22844515D02*
X27928571Y22787372D01*
X27928571Y22787372D02*
X27899999Y22758800D01*
X27899999Y22758800D02*
X27842856Y22730229D01*
X27842856Y22730229D02*
X27785713Y22730229D01*
X27785713Y22730229D02*
X27728571Y22758800D01*
X27728571Y22758800D02*
X27699999Y22787372D01*
X27699999Y22787372D02*
X27671428Y22844515D01*
X27671428Y22844515D02*
X27642856Y22958800D01*
X27642856Y22958800D02*
X27642856Y23101658D01*
X27642856Y23101658D02*
X27671428Y23215943D01*
X27671428Y23215943D02*
X27699999Y23273086D01*
X27699999Y23273086D02*
X27728571Y23301658D01*
X27728571Y23301658D02*
X27785713Y23330229D01*
X28557142Y22730229D02*
X28214285Y22730229D01*
X28385714Y22730229D02*
X28385714Y23330229D01*
X28385714Y23330229D02*
X28328571Y23244515D01*
X28328571Y23244515D02*
X28271428Y23187372D01*
X28271428Y23187372D02*
X28214285Y23158800D01*
X36669771Y8971429D02*
X37155485Y8971429D01*
X37155485Y8971429D02*
X37212628Y9000000D01*
X37212628Y9000000D02*
X37241200Y9028571D01*
X37241200Y9028571D02*
X37269771Y9085714D01*
X37269771Y9085714D02*
X37269771Y9200000D01*
X37269771Y9200000D02*
X37241200Y9257143D01*
X37241200Y9257143D02*
X37212628Y9285714D01*
X37212628Y9285714D02*
X37155485Y9314286D01*
X37155485Y9314286D02*
X36669771Y9314286D01*
X37269771Y9914285D02*
X37269771Y9571428D01*
X37269771Y9742857D02*
X36669771Y9742857D01*
X36669771Y9742857D02*
X36755485Y9685714D01*
X36755485Y9685714D02*
X36812628Y9628571D01*
X36812628Y9628571D02*
X36841200Y9571428D01*
X36669771Y10285714D02*
X36669771Y10342857D01*
X36669771Y10342857D02*
X36698342Y10400000D01*
X36698342Y10400000D02*
X36726914Y10428571D01*
X36726914Y10428571D02*
X36784057Y10457143D01*
X36784057Y10457143D02*
X36898342Y10485714D01*
X36898342Y10485714D02*
X37041200Y10485714D01*
X37041200Y10485714D02*
X37155485Y10457143D01*
X37155485Y10457143D02*
X37212628Y10428571D01*
X37212628Y10428571D02*
X37241200Y10400000D01*
X37241200Y10400000D02*
X37269771Y10342857D01*
X37269771Y10342857D02*
X37269771Y10285714D01*
X37269771Y10285714D02*
X37241200Y10228571D01*
X37241200Y10228571D02*
X37212628Y10200000D01*
X37212628Y10200000D02*
X37155485Y10171429D01*
X37155485Y10171429D02*
X37041200Y10142857D01*
X37041200Y10142857D02*
X36898342Y10142857D01*
X36898342Y10142857D02*
X36784057Y10171429D01*
X36784057Y10171429D02*
X36726914Y10200000D01*
X36726914Y10200000D02*
X36698342Y10228571D01*
X36698342Y10228571D02*
X36669771Y10285714D01*
X37269771Y11057143D02*
X37269771Y10714286D01*
X37269771Y10885715D02*
X36669771Y10885715D01*
X36669771Y10885715D02*
X36755485Y10828572D01*
X36755485Y10828572D02*
X36812628Y10771429D01*
X36812628Y10771429D02*
X36841200Y10714286D01*
X12269771Y5985715D02*
X11669771Y5985715D01*
X11669771Y5985715D02*
X11669771Y6128572D01*
X11669771Y6128572D02*
X11698342Y6214286D01*
X11698342Y6214286D02*
X11755485Y6271429D01*
X11755485Y6271429D02*
X11812628Y6300000D01*
X11812628Y6300000D02*
X11926914Y6328572D01*
X11926914Y6328572D02*
X12012628Y6328572D01*
X12012628Y6328572D02*
X12126914Y6300000D01*
X12126914Y6300000D02*
X12184057Y6271429D01*
X12184057Y6271429D02*
X12241200Y6214286D01*
X12241200Y6214286D02*
X12269771Y6128572D01*
X12269771Y6128572D02*
X12269771Y5985715D01*
X12269771Y6900000D02*
X12269771Y6557143D01*
X12269771Y6728572D02*
X11669771Y6728572D01*
X11669771Y6728572D02*
X11755485Y6671429D01*
X11755485Y6671429D02*
X11812628Y6614286D01*
X11812628Y6614286D02*
X11841200Y6557143D01*
X11669771Y7271429D02*
X11669771Y7328572D01*
X11669771Y7328572D02*
X11698342Y7385715D01*
X11698342Y7385715D02*
X11726914Y7414286D01*
X11726914Y7414286D02*
X11784057Y7442858D01*
X11784057Y7442858D02*
X11898342Y7471429D01*
X11898342Y7471429D02*
X12041200Y7471429D01*
X12041200Y7471429D02*
X12155485Y7442858D01*
X12155485Y7442858D02*
X12212628Y7414286D01*
X12212628Y7414286D02*
X12241200Y7385715D01*
X12241200Y7385715D02*
X12269771Y7328572D01*
X12269771Y7328572D02*
X12269771Y7271429D01*
X12269771Y7271429D02*
X12241200Y7214286D01*
X12241200Y7214286D02*
X12212628Y7185715D01*
X12212628Y7185715D02*
X12155485Y7157144D01*
X12155485Y7157144D02*
X12041200Y7128572D01*
X12041200Y7128572D02*
X11898342Y7128572D01*
X11898342Y7128572D02*
X11784057Y7157144D01*
X11784057Y7157144D02*
X11726914Y7185715D01*
X11726914Y7185715D02*
X11698342Y7214286D01*
X11698342Y7214286D02*
X11669771Y7271429D01*
X11726914Y7700001D02*
X11698342Y7728573D01*
X11698342Y7728573D02*
X11669771Y7785715D01*
X11669771Y7785715D02*
X11669771Y7928573D01*
X11669771Y7928573D02*
X11698342Y7985715D01*
X11698342Y7985715D02*
X11726914Y8014287D01*
X11726914Y8014287D02*
X11784057Y8042858D01*
X11784057Y8042858D02*
X11841200Y8042858D01*
X11841200Y8042858D02*
X11926914Y8014287D01*
X11926914Y8014287D02*
X12269771Y7671430D01*
X12269771Y7671430D02*
X12269771Y8042858D01*
X43985714Y6230229D02*
X43985714Y6830229D01*
X43985714Y6830229D02*
X44128571Y6830229D01*
X44128571Y6830229D02*
X44214285Y6801658D01*
X44214285Y6801658D02*
X44271428Y6744515D01*
X44271428Y6744515D02*
X44299999Y6687372D01*
X44299999Y6687372D02*
X44328571Y6573086D01*
X44328571Y6573086D02*
X44328571Y6487372D01*
X44328571Y6487372D02*
X44299999Y6373086D01*
X44299999Y6373086D02*
X44271428Y6315943D01*
X44271428Y6315943D02*
X44214285Y6258800D01*
X44214285Y6258800D02*
X44128571Y6230229D01*
X44128571Y6230229D02*
X43985714Y6230229D01*
X44899999Y6230229D02*
X44557142Y6230229D01*
X44728571Y6230229D02*
X44728571Y6830229D01*
X44728571Y6830229D02*
X44671428Y6744515D01*
X44671428Y6744515D02*
X44614285Y6687372D01*
X44614285Y6687372D02*
X44557142Y6658800D01*
X45271428Y6830229D02*
X45328571Y6830229D01*
X45328571Y6830229D02*
X45385714Y6801658D01*
X45385714Y6801658D02*
X45414286Y6773086D01*
X45414286Y6773086D02*
X45442857Y6715943D01*
X45442857Y6715943D02*
X45471428Y6601658D01*
X45471428Y6601658D02*
X45471428Y6458800D01*
X45471428Y6458800D02*
X45442857Y6344515D01*
X45442857Y6344515D02*
X45414286Y6287372D01*
X45414286Y6287372D02*
X45385714Y6258800D01*
X45385714Y6258800D02*
X45328571Y6230229D01*
X45328571Y6230229D02*
X45271428Y6230229D01*
X45271428Y6230229D02*
X45214286Y6258800D01*
X45214286Y6258800D02*
X45185714Y6287372D01*
X45185714Y6287372D02*
X45157143Y6344515D01*
X45157143Y6344515D02*
X45128571Y6458800D01*
X45128571Y6458800D02*
X45128571Y6601658D01*
X45128571Y6601658D02*
X45157143Y6715943D01*
X45157143Y6715943D02*
X45185714Y6773086D01*
X45185714Y6773086D02*
X45214286Y6801658D01*
X45214286Y6801658D02*
X45271428Y6830229D01*
X46042857Y6230229D02*
X45700000Y6230229D01*
X45871429Y6230229D02*
X45871429Y6830229D01*
X45871429Y6830229D02*
X45814286Y6744515D01*
X45814286Y6744515D02*
X45757143Y6687372D01*
X45757143Y6687372D02*
X45700000Y6658800D01*
%TO.C,P103*%
X56175000Y3500000D02*
G75*
G02*
X49825000Y3500000I-3175000J0D01*
G01*
X49825000Y3500000D02*
G75*
G02*
X56175000Y3500000I3175000J0D01*
G01*
%TO.C,R103*%
X37478733Y3860000D02*
X37821267Y3860000D01*
X37478733Y2840000D02*
X37821267Y2840000D01*
%TO.C,R101*%
X34571267Y11010000D02*
X34228733Y11010000D01*
X34571267Y9990000D02*
X34228733Y9990000D01*
%TO.C,TP101*%
X42200000Y5150000D02*
G75*
G02*
X40800000Y5150000I-700000J0D01*
G01*
X40800000Y5150000D02*
G75*
G02*
X42200000Y5150000I700000J0D01*
G01*
%TO.C,R102*%
X37453733Y5960000D02*
X37796267Y5960000D01*
X37453733Y4940000D02*
X37796267Y4940000D01*
%TO.C,C101*%
X43228733Y3860000D02*
X43571267Y3860000D01*
X43228733Y2840000D02*
X43571267Y2840000D01*
%TO.C,P101*%
X6675000Y3500000D02*
G75*
G02*
X325000Y3500000I-3175000J0D01*
G01*
X325000Y3500000D02*
G75*
G02*
X6675000Y3500000I3175000J0D01*
G01*
%TO.C,Q101*%
X26584040Y11970000D02*
X35372100Y11970000D01*
X35372100Y22130000D02*
X26584040Y22130000D01*
X37147539Y13230992D02*
G75*
G02*
X37147540Y12469010I2561J-380991D01*
G01*
%TO.C,U101*%
X37825000Y12075000D02*
X37970000Y12075000D01*
X37825000Y7925000D02*
X37825000Y12075000D01*
X37825000Y7925000D02*
X37875000Y7925000D01*
X37875000Y7925000D02*
X37875000Y6525000D01*
X42975000Y12075000D02*
X42830000Y12075000D01*
X42975000Y7925000D02*
X42830000Y7925000D01*
X42975000Y7925000D02*
X42975000Y12075000D01*
%TO.C,D102*%
X12600000Y3850000D02*
X12600000Y9250000D01*
X12600000Y3850000D02*
X15900000Y3850000D01*
X15900000Y3850000D02*
X15900000Y9250000D01*
%TO.C,D101*%
X43350000Y7100000D02*
X43350000Y12500000D01*
X43350000Y7100000D02*
X46650000Y7100000D01*
X46650000Y7100000D02*
X46650000Y12500000D01*
%TD*%
M02*
