%TF.GenerationSoftware,KiCad,Pcbnew,8.0.4*%
%TF.CreationDate,2024-08-05T19:41:17-07:00*%
%TF.ProjectId,20220727_Projects_Ideal_Diode_02,32303232-3037-4323-975f-50726f6a6563,rev?*%
%TF.SameCoordinates,PX9634260PY6ea0500*%
%TF.FileFunction,Legend,Bot*%
%TF.FilePolarity,Positive*%
%FSLAX46Y46*%
G04 Gerber Fmt 4.6, Leading zero omitted, Abs format (unit mm)*
G04 Created by KiCad (PCBNEW 8.0.4) date 2024-08-05 19:41:17*
%MOMM*%
%LPD*%
G01*
G04 APERTURE LIST*
%ADD10C,0.150000*%
G04 APERTURE END LIST*
D10*
X31569771Y22664286D02*
X30969771Y22664286D01*
X30969771Y22664286D02*
X30969771Y22435715D01*
X30969771Y22435715D02*
X30998342Y22378572D01*
X30998342Y22378572D02*
X31026914Y22350001D01*
X31026914Y22350001D02*
X31084057Y22321429D01*
X31084057Y22321429D02*
X31169771Y22321429D01*
X31169771Y22321429D02*
X31226914Y22350001D01*
X31226914Y22350001D02*
X31255485Y22378572D01*
X31255485Y22378572D02*
X31284057Y22435715D01*
X31284057Y22435715D02*
X31284057Y22664286D01*
X31569771Y21750001D02*
X31569771Y22092858D01*
X31569771Y21921429D02*
X30969771Y21921429D01*
X30969771Y21921429D02*
X31055485Y21978572D01*
X31055485Y21978572D02*
X31112628Y22035715D01*
X31112628Y22035715D02*
X31141200Y22092858D01*
X30969771Y21378572D02*
X30969771Y21321429D01*
X30969771Y21321429D02*
X30998342Y21264286D01*
X30998342Y21264286D02*
X31026914Y21235714D01*
X31026914Y21235714D02*
X31084057Y21207143D01*
X31084057Y21207143D02*
X31198342Y21178572D01*
X31198342Y21178572D02*
X31341200Y21178572D01*
X31341200Y21178572D02*
X31455485Y21207143D01*
X31455485Y21207143D02*
X31512628Y21235714D01*
X31512628Y21235714D02*
X31541200Y21264286D01*
X31541200Y21264286D02*
X31569771Y21321429D01*
X31569771Y21321429D02*
X31569771Y21378572D01*
X31569771Y21378572D02*
X31541200Y21435714D01*
X31541200Y21435714D02*
X31512628Y21464286D01*
X31512628Y21464286D02*
X31455485Y21492857D01*
X31455485Y21492857D02*
X31341200Y21521429D01*
X31341200Y21521429D02*
X31198342Y21521429D01*
X31198342Y21521429D02*
X31084057Y21492857D01*
X31084057Y21492857D02*
X31026914Y21464286D01*
X31026914Y21464286D02*
X30998342Y21435714D01*
X30998342Y21435714D02*
X30969771Y21378572D01*
X30969771Y20635714D02*
X30969771Y20921428D01*
X30969771Y20921428D02*
X31255485Y20950000D01*
X31255485Y20950000D02*
X31226914Y20921428D01*
X31226914Y20921428D02*
X31198342Y20864285D01*
X31198342Y20864285D02*
X31198342Y20721428D01*
X31198342Y20721428D02*
X31226914Y20664285D01*
X31226914Y20664285D02*
X31255485Y20635714D01*
X31255485Y20635714D02*
X31312628Y20607143D01*
X31312628Y20607143D02*
X31455485Y20607143D01*
X31455485Y20607143D02*
X31512628Y20635714D01*
X31512628Y20635714D02*
X31541200Y20664285D01*
X31541200Y20664285D02*
X31569771Y20721428D01*
X31569771Y20721428D02*
X31569771Y20864285D01*
X31569771Y20864285D02*
X31541200Y20921428D01*
X31541200Y20921428D02*
X31512628Y20950000D01*
%TO.C,Q101*%
X37531100Y12850001D02*
G75*
G02*
X36769100Y12850001I-381000J0D01*
G01*
X36769100Y12850001D02*
G75*
G02*
X37531100Y12850001I381000J0D01*
G01*
%TD*%
M02*
