%TF.GenerationSoftware,KiCad,Pcbnew,8.0.4*%
%TF.CreationDate,2024-08-05T19:41:17-07:00*%
%TF.ProjectId,20220727_Projects_Ideal_Diode_02,32303232-3037-4323-975f-50726f6a6563,rev?*%
%TF.SameCoordinates,PX9634260PY6ea0500*%
%TF.FileFunction,Soldermask,Top*%
%TF.FilePolarity,Negative*%
%FSLAX46Y46*%
G04 Gerber Fmt 4.6, Leading zero omitted, Abs format (unit mm)*
G04 Created by KiCad (PCBNEW 8.0.4) date 2024-08-05 19:41:17*
%MOMM*%
%LPD*%
G01*
G04 APERTURE LIST*
G04 Aperture macros list*
%AMRoundRect*
0 Rectangle with rounded corners*
0 $1 Rounding radius*
0 $2 $3 $4 $5 $6 $7 $8 $9 X,Y pos of 4 corners*
0 Add a 4 corners polygon primitive as box body*
4,1,4,$2,$3,$4,$5,$6,$7,$8,$9,$2,$3,0*
0 Add four circle primitives for the rounded corners*
1,1,$1+$1,$2,$3*
1,1,$1+$1,$4,$5*
1,1,$1+$1,$6,$7*
1,1,$1+$1,$8,$9*
0 Add four rect primitives between the rounded corners*
20,1,$1+$1,$2,$3,$4,$5,0*
20,1,$1+$1,$4,$5,$6,$7,0*
20,1,$1+$1,$6,$7,$8,$9,0*
20,1,$1+$1,$8,$9,$2,$3,0*%
G04 Aperture macros list end*
%ADD10C,6.000000*%
%ADD11RoundRect,0.237500X-0.287500X-0.237500X0.287500X-0.237500X0.287500X0.237500X-0.287500X0.237500X0*%
%ADD12C,3.000000*%
%ADD13C,12.000000*%
%ADD14RoundRect,0.237500X0.287500X0.237500X-0.287500X0.237500X-0.287500X-0.237500X0.287500X-0.237500X0*%
%ADD15C,1.000000*%
%ADD16R,2.794000X0.812800*%
%ADD17R,8.102600X10.210800*%
%ADD18R,0.600000X1.550000*%
%ADD19R,1.800000X2.500000*%
G04 APERTURE END LIST*
D10*
%TO.C,P103*%
X53000000Y3500000D03*
%TD*%
D11*
%TO.C,R103*%
X36775000Y3350000D03*
X38525000Y3350000D03*
%TD*%
D12*
%TO.C,P104*%
X45600000Y22500000D03*
X46800000Y25500000D03*
X46800000Y19500000D03*
X50000000Y26900000D03*
D13*
X50000000Y22500000D03*
D12*
X50000000Y18100000D03*
X53000000Y25700000D03*
X53200000Y19500000D03*
X54400000Y22500000D03*
%TD*%
D14*
%TO.C,R101*%
X35275000Y10500000D03*
X33525000Y10500000D03*
%TD*%
D15*
%TO.C,TP101*%
X41500000Y5150000D03*
%TD*%
D11*
%TO.C,R102*%
X36750000Y5450000D03*
X38500000Y5450000D03*
%TD*%
%TO.C,C101*%
X42525000Y3350000D03*
X44275000Y3350000D03*
%TD*%
D10*
%TO.C,P101*%
X3500000Y3500000D03*
%TD*%
D16*
%TO.C,Q101*%
X35240000Y12850001D03*
X35240000Y14050001D03*
X35240000Y15250001D03*
X35240000Y16450001D03*
X35240000Y17650001D03*
X35240000Y18849999D03*
X35240000Y20049999D03*
X35240000Y21249999D03*
D17*
X22200000Y17050000D03*
%TD*%
D12*
%TO.C,P102*%
X2100000Y22500000D03*
X3300000Y25500000D03*
X3300000Y19500000D03*
X6500000Y26900000D03*
D13*
X6500000Y22500000D03*
D12*
X6500000Y18100000D03*
X9500000Y25700000D03*
X9700000Y19500000D03*
X10900000Y22500000D03*
%TD*%
D18*
%TO.C,U101*%
X38495000Y7300000D03*
X39765000Y7300000D03*
X41035000Y7300000D03*
X42305000Y7300000D03*
X42305000Y12700000D03*
X41035000Y12700000D03*
X39765000Y12700000D03*
X38495000Y12700000D03*
%TD*%
D19*
%TO.C,D102*%
X14250000Y5250000D03*
X14250000Y9250000D03*
%TD*%
%TO.C,D101*%
X45000000Y8500000D03*
X45000000Y12500000D03*
%TD*%
G36*
X25758187Y28998922D02*
G01*
X25862961Y28985129D01*
X25894734Y28976616D01*
X25984673Y28939362D01*
X26013160Y28922915D01*
X26090393Y28863651D01*
X26113650Y28840394D01*
X26172914Y28763161D01*
X26189361Y28734674D01*
X26226615Y28644735D01*
X26235128Y28612964D01*
X26248922Y28508190D01*
X26250000Y28491743D01*
X26250000Y11499998D01*
X26267036Y11370592D01*
X26316988Y11249998D01*
X26396447Y11146448D01*
X26499997Y11066989D01*
X26620591Y11017037D01*
X26749997Y11000001D01*
X26750007Y11000000D01*
X33491742Y11000000D01*
X33508187Y10998922D01*
X33612961Y10985129D01*
X33644734Y10976616D01*
X33734673Y10939362D01*
X33763160Y10922915D01*
X33840393Y10863651D01*
X33863650Y10840394D01*
X33922914Y10763161D01*
X33939361Y10734674D01*
X33976615Y10644735D01*
X33985128Y10612964D01*
X33998922Y10508190D01*
X34000000Y10491743D01*
X34000000Y8758258D01*
X33998922Y8741811D01*
X33985128Y8637037D01*
X33976615Y8605266D01*
X33939361Y8515327D01*
X33922914Y8486840D01*
X33863650Y8409607D01*
X33840393Y8386350D01*
X33763160Y8327086D01*
X33734673Y8310639D01*
X33644734Y8273385D01*
X33612963Y8264872D01*
X33508189Y8251078D01*
X33491742Y8250000D01*
X508258Y8250000D01*
X491812Y8251078D01*
X387037Y8264872D01*
X355265Y8273385D01*
X265326Y8310639D01*
X236839Y8327086D01*
X159606Y8386350D01*
X136349Y8409607D01*
X77085Y8486840D01*
X60638Y8515327D01*
X23384Y8605266D01*
X14871Y8637039D01*
X1078Y8741813D01*
X0Y8758258D01*
X0Y28491743D01*
X1078Y28508188D01*
X14871Y28612962D01*
X23384Y28644735D01*
X60638Y28734674D01*
X77085Y28763161D01*
X136349Y28840394D01*
X159606Y28863651D01*
X236839Y28922915D01*
X265326Y28939362D01*
X355265Y28976616D01*
X387038Y28985129D01*
X491813Y28998922D01*
X508258Y29000000D01*
X25741742Y29000000D01*
X25758187Y28998922D01*
G37*
G36*
X56008187Y28998922D02*
G01*
X56112961Y28985129D01*
X56144734Y28976616D01*
X56234673Y28939362D01*
X56263160Y28922915D01*
X56340393Y28863651D01*
X56363650Y28840394D01*
X56422914Y28763161D01*
X56439361Y28734674D01*
X56476615Y28644735D01*
X56485128Y28612964D01*
X56498922Y28508190D01*
X56500000Y28491743D01*
X56500000Y11758258D01*
X56498922Y11741811D01*
X56485128Y11637037D01*
X56476615Y11605266D01*
X56439361Y11515327D01*
X56422914Y11486840D01*
X56363650Y11409607D01*
X56340393Y11386350D01*
X56263160Y11327086D01*
X56234673Y11310639D01*
X56144734Y11273385D01*
X56112963Y11264872D01*
X56008189Y11251078D01*
X55991742Y11250000D01*
X42508258Y11250000D01*
X42491812Y11251078D01*
X42387037Y11264872D01*
X42355265Y11273385D01*
X42265326Y11310639D01*
X42236839Y11327086D01*
X42159606Y11386350D01*
X42136349Y11409607D01*
X42077085Y11486840D01*
X42060638Y11515327D01*
X42023384Y11605266D01*
X42014871Y11637039D01*
X42001078Y11741813D01*
X42000000Y11758258D01*
X42000000Y13949993D01*
X41999999Y13950003D01*
X41982963Y14079409D01*
X41933011Y14200003D01*
X41853552Y14303553D01*
X41750002Y14383012D01*
X41629408Y14432964D01*
X41500002Y14450000D01*
X37050002Y14450000D01*
X36926394Y14430424D01*
X36814885Y14373608D01*
X36726392Y14285115D01*
X36669576Y14173606D01*
X36650000Y14050000D01*
X36650000Y14049998D01*
X36633544Y13946103D01*
X36621362Y13908612D01*
X36582665Y13832665D01*
X36559493Y13800773D01*
X36499227Y13740507D01*
X36467335Y13717335D01*
X36391388Y13678638D01*
X36353897Y13666456D01*
X36259795Y13651551D01*
X36240083Y13650000D01*
X34358258Y13650000D01*
X34341812Y13651078D01*
X34237037Y13664872D01*
X34205265Y13673385D01*
X34115326Y13710639D01*
X34086839Y13727086D01*
X34009606Y13786350D01*
X33986349Y13809607D01*
X33927085Y13886840D01*
X33910638Y13915327D01*
X33873384Y14005266D01*
X33864871Y14037039D01*
X33851078Y14141813D01*
X33850000Y14158258D01*
X33850000Y28491743D01*
X33851078Y28508188D01*
X33864871Y28612962D01*
X33873384Y28644735D01*
X33910638Y28734674D01*
X33927085Y28763161D01*
X33986349Y28840394D01*
X34009606Y28863651D01*
X34086839Y28922915D01*
X34115326Y28939362D01*
X34205265Y28976616D01*
X34237038Y28985129D01*
X34341813Y28998922D01*
X34358258Y29000000D01*
X55991742Y29000000D01*
X56008187Y28998922D01*
G37*
M02*
