%TF.GenerationSoftware,KiCad,Pcbnew,8.0.4*%
%TF.CreationDate,2024-08-05T19:41:16-07:00*%
%TF.ProjectId,20220727_Projects_Ideal_Diode_02,32303232-3037-4323-975f-50726f6a6563,rev?*%
%TF.SameCoordinates,PX9634260PY6ea0500*%
%TF.FileFunction,Copper,L2,Bot*%
%TF.FilePolarity,Positive*%
%FSLAX46Y46*%
G04 Gerber Fmt 4.6, Leading zero omitted, Abs format (unit mm)*
G04 Created by KiCad (PCBNEW 8.0.4) date 2024-08-05 19:41:16*
%MOMM*%
%LPD*%
G01*
G04 APERTURE LIST*
%TA.AperFunction,ComponentPad*%
%ADD10C,6.000000*%
%TD*%
%TA.AperFunction,ComponentPad*%
%ADD11C,3.000000*%
%TD*%
%TA.AperFunction,ComponentPad*%
%ADD12C,12.000000*%
%TD*%
%TA.AperFunction,SMDPad,CuDef*%
%ADD13R,28.000000X28.000000*%
%TD*%
%TA.AperFunction,ViaPad*%
%ADD14C,2.000000*%
%TD*%
G04 APERTURE END LIST*
D10*
%TO.P,P103,1,1*%
%TO.N,/+VIN*%
X53000000Y3500000D03*
%TD*%
D11*
%TO.P,P104,1,1*%
%TO.N,GND*%
X45600000Y22500000D03*
X46800000Y25500000D03*
X46800000Y19500000D03*
X50000000Y26900000D03*
D12*
X50000000Y22500000D03*
D11*
X50000000Y18100000D03*
X53000000Y25700000D03*
X53200000Y19500000D03*
X54400000Y22500000D03*
%TD*%
D10*
%TO.P,P101,1,1*%
%TO.N,/+VIN*%
X3500000Y3500000D03*
%TD*%
D11*
%TO.P,P102,1,1*%
%TO.N,/-SOURCE*%
X2100000Y22500000D03*
X3300000Y25500000D03*
X3300000Y19500000D03*
X6500000Y26900000D03*
D12*
X6500000Y22500000D03*
D11*
X6500000Y18100000D03*
X9500000Y25700000D03*
X9700000Y19500000D03*
X10900000Y22500000D03*
%TD*%
D13*
%TO.P,P105,1,1*%
%TO.N,/-SOURCE*%
X27500000Y14500000D03*
%TD*%
D14*
%TO.N,GND*%
X44500000Y16000000D03*
X54500000Y16000000D03*
X44500000Y28000000D03*
%TO.N,/-SOURCE*%
X13500000Y24000000D03*
X13500000Y12000000D03*
X1500000Y12000000D03*
X13500000Y20000000D03*
X13500000Y16000000D03*
X21500000Y28000000D03*
X21500000Y24000000D03*
X13500000Y28000000D03*
X1500000Y16000000D03*
X17500000Y20000000D03*
X5500000Y12000000D03*
X17500000Y16000000D03*
X29500000Y16000000D03*
X29500000Y20000000D03*
X17500000Y28000000D03*
X9500000Y12000000D03*
X25500000Y9000000D03*
X17500000Y24000000D03*
X29500000Y12000000D03*
X17500000Y9000000D03*
X21500000Y9000000D03*
X25500000Y28000000D03*
X17500000Y12000000D03*
X29500000Y24000000D03*
X25500000Y24000000D03*
%TD*%
%TA.AperFunction,Conductor*%
%TO.N,/-SOURCE*%
G36*
X41008187Y28998922D02*
G01*
X41036201Y28995235D01*
X41112964Y28985129D01*
X41144731Y28976617D01*
X41234675Y28939361D01*
X41263160Y28922915D01*
X41340393Y28863651D01*
X41363650Y28840394D01*
X41422914Y28763161D01*
X41439361Y28734674D01*
X41476615Y28644735D01*
X41485128Y28612964D01*
X41498922Y28508190D01*
X41500000Y28491743D01*
X41500000Y508258D01*
X41498922Y491811D01*
X41485128Y387037D01*
X41476615Y355266D01*
X41439361Y265327D01*
X41422914Y236840D01*
X41363650Y159607D01*
X41340393Y136350D01*
X41263160Y77086D01*
X41234673Y60639D01*
X41144734Y23385D01*
X41112963Y14872D01*
X41035024Y4612D01*
X41008187Y1078D01*
X40991742Y0D01*
X10608258Y0D01*
X10591812Y1078D01*
X10487037Y14872D01*
X10455265Y23385D01*
X10365326Y60639D01*
X10336839Y77086D01*
X10259606Y136350D01*
X10236349Y159607D01*
X10177085Y236840D01*
X10160638Y265327D01*
X10123384Y355266D01*
X10114871Y387039D01*
X10101078Y491813D01*
X10100000Y508258D01*
X10100000Y7499993D01*
X10100000Y7500000D01*
X10082963Y7629410D01*
X10033013Y7750000D01*
X9953553Y7853553D01*
X9892525Y7900382D01*
X9850002Y7933012D01*
X9729408Y7982964D01*
X9600002Y8000000D01*
X9600000Y8000000D01*
X608258Y8000000D01*
X591812Y8001078D01*
X487037Y8014872D01*
X455265Y8023385D01*
X365326Y8060639D01*
X336839Y8077086D01*
X259606Y8136350D01*
X236349Y8159607D01*
X177085Y8236840D01*
X160638Y8265327D01*
X123384Y8355266D01*
X114871Y8387039D01*
X101078Y8491813D01*
X100000Y8508258D01*
X100000Y28491743D01*
X101078Y28508188D01*
X101917Y28514568D01*
X114872Y28612967D01*
X123382Y28644730D01*
X160640Y28734679D01*
X177082Y28763157D01*
X236351Y28840397D01*
X259603Y28863649D01*
X336843Y28922918D01*
X365321Y28939360D01*
X455270Y28976618D01*
X487033Y28985128D01*
X568592Y28995866D01*
X591813Y28998922D01*
X608258Y29000000D01*
X40991742Y29000000D01*
X41008187Y28998922D01*
G37*
%TD.AperFunction*%
%TD*%
%TA.AperFunction,Conductor*%
%TO.N,GND*%
G36*
X56008187Y28998922D02*
G01*
X56036201Y28995235D01*
X56112964Y28985129D01*
X56144731Y28976617D01*
X56234675Y28939361D01*
X56263160Y28922915D01*
X56340393Y28863651D01*
X56363650Y28840394D01*
X56422914Y28763161D01*
X56439361Y28734674D01*
X56476615Y28644735D01*
X56485128Y28612964D01*
X56498922Y28508190D01*
X56500000Y28491743D01*
X56500000Y8908258D01*
X56498922Y8891811D01*
X56485128Y8787037D01*
X56476615Y8755266D01*
X56439361Y8665327D01*
X56422914Y8636840D01*
X56363650Y8559607D01*
X56340393Y8536350D01*
X56263160Y8477086D01*
X56234673Y8460639D01*
X56144734Y8423385D01*
X56112963Y8414872D01*
X56035024Y8404612D01*
X56008187Y8401078D01*
X55991742Y8400000D01*
X44208258Y8400000D01*
X44191812Y8401078D01*
X44087037Y8414872D01*
X44055265Y8423385D01*
X43965326Y8460639D01*
X43936839Y8477086D01*
X43859606Y8536350D01*
X43836349Y8559607D01*
X43777085Y8636840D01*
X43760638Y8665327D01*
X43723384Y8755266D01*
X43714871Y8787039D01*
X43701078Y8891813D01*
X43700000Y8908258D01*
X43700000Y28491743D01*
X43701078Y28508188D01*
X43701917Y28514568D01*
X43714872Y28612967D01*
X43723382Y28644730D01*
X43760640Y28734679D01*
X43777082Y28763157D01*
X43836351Y28840397D01*
X43859603Y28863649D01*
X43936843Y28922918D01*
X43965321Y28939360D01*
X44055270Y28976618D01*
X44087033Y28985128D01*
X44168592Y28995866D01*
X44191813Y28998922D01*
X44208258Y29000000D01*
X55991742Y29000000D01*
X56008187Y28998922D01*
G37*
%TD.AperFunction*%
%TD*%
M02*
